<svg width="521" height="574" viewBox="0 0 521 574" fill="none" xmlns="http://www.w3.org/2000/svg">
<path d="M328.5 0H492.5L493.5 26.5H520.5V109H411V135.5H493.5V163.5H411V273H445.5V245H466V273V300H438H411V327H383.5V381H356.5V409H329V437.5H301V464H274H246V490.5V513V546H274V573.5H219.5V519.5H190.5V490.5H164.5V519.5V546H190.5V573.5H137V490.5H109V464H54V437.5H28V381H0V300H28V327H54V354.5H81.5V381H137V354.5H164.5V327H193V300H219.5V273H246V245H274V218.5H301V26.5H328.5V0Z" fill="#375C0E"/>
<rect width="20" height="20" transform="matrix(-1 0 0 1 426.5 34)" fill="black"/>
<rect width="28" height="28" transform="matrix(-1 0 0 1 411.5 300)" fill="#FF0101"/>
<rect width="27" height="26" transform="matrix(-1 0 0 1 410.5 246)" fill="#FF0101"/>
<rect width="28" height="82" transform="matrix(-1 0 0 1 384.5 300)" fill="#FF0101"/>
<rect width="28" height="84" transform="matrix(-1 0 0 1 357.5 326)" fill="#FF0101"/>
<rect width="29" height="58" transform="matrix(-1 0 0 1 329.5 380)" fill="#FF0101"/>
<rect width="28" height="27" transform="matrix(-1 0 0 1 302.5 438)" fill="#FF0101"/>
</svg>
